<svg width="14" height="11" viewBox="0 0 14 11" fill="none" xmlns="http://www.w3.org/2000/svg">
<path d="M0.7 0.6875L6.14048 4.84343C6.64604 5.22961 7.35396 5.22961 7.85952 4.84342L13.3 0.6875M2.24 11H11.76C12.5441 11 12.9361 11 13.2356 10.8501C13.499 10.7183 13.7132 10.508 13.8474 10.2492C14 9.95511 14 9.57007 14 8.8V2.2C14 1.42993 14 1.04489 13.8474 0.750763C13.7132 0.49204 13.499 0.281692 13.2356 0.149866C12.9361 0 12.5441 0 11.76 0H2.24C1.45593 0 1.06389 0 0.764413 0.149866C0.500986 0.281692 0.286814 0.49204 0.152591 0.750763C0 1.04489 0 1.42993 0 2.2V8.8C0 9.57007 0 9.95511 0.152591 10.2492C0.286814 10.508 0.500986 10.7183 0.764413 10.8501C1.06389 11 1.45593 11 2.24 11Z" stroke="black" stroke-width="1.5"/>
</svg>
