<svg width="25" height="24" viewBox="0 0 25 24" fill="none" xmlns="http://www.w3.org/2000/svg">
<rect x="0.732422" width="24" height="24" rx="12" fill="white"/>
<g clipPath="url(#clip0_986_20941)">
<path d="M12.7345 9.1468C11.1311 9.1468 9.83784 10.4199 9.83784 11.9982C9.83784 13.5765 11.1311 14.8496 12.7345 14.8496C14.3378 14.8496 15.6311 13.5765 15.6311 11.9982C15.6311 10.4199 14.3378 9.1468 12.7345 9.1468ZM12.7345 13.8519C11.6983 13.8519 10.8513 13.0206 10.8513 11.9982C10.8513 10.9758 11.6958 10.1444 12.7345 10.1444C13.7731 10.1444 14.6177 10.9758 14.6177 11.9982C14.6177 13.0206 13.7706 13.8519 12.7345 13.8519ZM16.4252 9.03017C16.4252 9.39993 16.1227 9.69524 15.7496 9.69524C15.374 9.69524 15.074 9.39745 15.074 9.03017C15.074 8.66289 15.3765 8.3651 15.7496 8.3651C16.1227 8.3651 16.4252 8.66289 16.4252 9.03017ZM18.3437 9.70517C18.3009 8.81427 18.0941 8.02511 17.4311 7.37493C16.7706 6.72475 15.9689 6.52125 15.0639 6.47659C14.1311 6.42447 11.3353 6.42447 10.4025 6.47659C9.50002 6.51877 8.69834 6.72227 8.03532 7.37245C7.37229 8.02263 7.16809 8.81179 7.12271 9.70269C7.06977 10.6209 7.06977 13.373 7.12271 14.2912C7.16557 15.1821 7.37229 15.9712 8.03532 16.6214C8.69834 17.2716 9.4975 17.4751 10.4025 17.5198C11.3353 17.5719 14.1311 17.5719 15.0639 17.5198C15.9689 17.4776 16.7706 17.2741 17.4311 16.6214C18.0916 15.9712 18.2983 15.1821 18.3437 14.2912C18.3967 13.373 18.3967 10.6234 18.3437 9.70517ZM17.1387 15.2764C16.942 15.7628 16.5614 16.1375 16.0647 16.3336C15.321 16.6239 13.5563 16.5569 12.7345 16.5569C11.9126 16.5569 10.1454 16.6214 9.40422 16.3336C8.91011 16.14 8.52944 15.7653 8.33028 15.2764C8.03532 14.5443 8.10339 12.8072 8.10339 11.9982C8.10339 11.1892 8.03784 9.44956 8.33028 8.71997C8.52691 8.23357 8.90759 7.85885 9.40422 7.6628C10.1479 7.37245 11.9126 7.43945 12.7345 7.43945C13.5563 7.43945 15.3235 7.37493 16.0647 7.6628C16.5588 7.85636 16.9395 8.23109 17.1387 8.71997C17.4336 9.45204 17.3656 11.1892 17.3656 11.9982C17.3656 12.8072 17.4336 14.5468 17.1387 15.2764Z" fill="#2E3192"/>
</g>
<defs>
<clipPath id="clip0_986_20941">
<rect width="11.2941" height="12.7059" fill="white" transform="translate(7.08496 5.64746)"/>
</clipPath>
</defs>
</svg>
