<svg width="24" height="24" viewBox="0 0 24 24" fill="none" xmlns="http://www.w3.org/2000/svg">
<rect width="24" height="24" rx="12" fill="#161616"/>
<g clipPath="url(#clip0_1_1214)">
<path d="M12.0024 9.14632C10.399 9.14632 9.10572 10.4194 9.10572 11.9977C9.10572 13.576 10.399 14.8491 12.0024 14.8491C13.6057 14.8491 14.899 13.576 14.899 11.9977C14.899 10.4194 13.6057 9.14632 12.0024 9.14632ZM12.0024 13.8515C10.9662 13.8515 10.1192 13.0201 10.1192 11.9977C10.1192 10.9753 10.9637 10.1439 12.0024 10.1439C13.041 10.1439 13.8855 10.9753 13.8855 11.9977C13.8855 13.0201 13.0385 13.8515 12.0024 13.8515V13.8515ZM15.6931 9.02968C15.6931 9.39944 15.3906 9.69475 15.0175 9.69475C14.6419 9.69475 14.3419 9.39696 14.3419 9.02968C14.3419 8.6624 14.6444 8.36461 15.0175 8.36461C15.3906 8.36461 15.6931 8.6624 15.6931 9.02968ZM17.6116 9.70468C17.5687 8.81378 17.362 8.02463 16.699 7.37444C16.0385 6.72426 15.2368 6.52077 14.3318 6.4761C13.399 6.42398 10.6032 6.42398 9.67043 6.4761C8.76791 6.51828 7.96623 6.72178 7.3032 7.37196C6.64018 8.02214 6.43598 8.8113 6.3906 9.7022C6.33766 10.6204 6.33766 13.3725 6.3906 14.2907C6.43345 15.1816 6.64018 15.9708 7.3032 16.6209C7.96623 17.2711 8.76539 17.4746 9.67043 17.5193C10.6032 17.5714 13.399 17.5714 14.3318 17.5193C15.2368 17.4771 16.0385 17.2736 16.699 16.6209C17.3595 15.9708 17.5662 15.1816 17.6116 14.2907C17.6645 13.3725 17.6645 10.6229 17.6116 9.70468V9.70468ZM16.4066 15.2759C16.2099 15.7623 15.8292 16.137 15.3326 16.3331C14.5889 16.6234 12.8242 16.5564 12.0024 16.5564C11.1805 16.5564 9.41328 16.6209 8.67211 16.3331C8.17799 16.1395 7.79732 15.7648 7.59816 15.2759C7.3032 14.5438 7.37127 12.8067 7.37127 11.9977C7.37127 11.1887 7.30572 9.44907 7.59816 8.71948C7.7948 8.23308 8.17547 7.85836 8.67211 7.66231C9.4158 7.37196 11.1805 7.43896 12.0024 7.43896C12.8242 7.43896 14.5914 7.37444 15.3326 7.66231C15.8267 7.85588 16.2074 8.2306 16.4066 8.71948C16.7015 9.45156 16.6334 11.1887 16.6334 11.9977C16.6334 12.8067 16.7015 14.5463 16.4066 15.2759Z" fill="white"/>
</g>
<defs>
<clipPath id="clip0_1_1214">
<rect width="11.2941" height="12.7059" fill="white" transform="translate(6.35297 5.64697)"/>
</clipPath>
</defs>
</svg>
