<svg width="25" height="24" viewBox="0 0 25 24" fill="none" xmlns="http://www.w3.org/2000/svg">
<rect x="0.732422" width="24" height="24" rx="12" fill="white"/>
<g clipPath="url(#clip0_986_20937)">
<path d="M9.64921 16.9408V9.79691H7.22782V16.9408H9.64921ZM8.43883 8.82095C9.28321 8.82095 9.8088 8.27239 9.8088 7.58686C9.79307 6.88588 9.28324 6.35254 8.45485 6.35254C7.62659 6.35254 7.08496 6.88589 7.08496 7.58686C7.08496 8.27242 7.61042 8.82095 8.42302 8.82095H8.43875H8.43883ZM10.9894 16.9408H13.4108V12.9513C13.4108 12.7378 13.4266 12.5245 13.4905 12.3719C13.6656 11.9453 14.064 11.5035 14.7329 11.5035C15.6091 11.5035 15.9596 12.1586 15.9596 13.1189V16.9407H18.3808V12.8445C18.3808 10.6502 17.1862 9.6292 15.5931 9.6292C14.2869 9.6292 13.7133 10.3452 13.3947 10.8329H13.4109V9.79676H10.9895C11.0213 10.4671 10.9895 16.9406 10.9895 16.9406L10.9894 16.9408Z" fill="#2E3192"/>
</g>
<defs>
<clipPath id="clip0_986_20937">
<rect width="11.2941" height="10.5882" fill="white" transform="translate(7.08496 6.35254)"/>
</clipPath>
</defs>
</svg>
