<svg width="24" height="24" viewBox="0 0 24 24" fill="none" xmlns="http://www.w3.org/2000/svg">
<rect width="24" height="24" rx="12" fill="#161616"/>
<g clipPath="url(#clip0_1_1210)">
<path d="M8.91722 16.9413V9.7974H6.49583V16.9413H8.91722ZM7.70684 8.82144C8.55122 8.82144 9.0768 8.27288 9.0768 7.58735C9.06107 6.88637 8.55125 6.35303 7.72286 6.35303C6.8946 6.35303 6.35297 6.88638 6.35297 7.58735C6.35297 8.27291 6.87842 8.82144 7.69103 8.82144H7.70676H7.70684ZM10.2574 16.9413H12.6788V12.9518C12.6788 12.7383 12.6946 12.525 12.7585 12.3724C12.9336 11.9458 13.332 11.5039 14.0009 11.5039C14.8771 11.5039 15.2276 12.1591 15.2276 13.1194V16.9412H17.6488V12.845C17.6488 10.6507 16.4542 9.62968 14.8611 9.62968C13.5549 9.62968 12.9813 10.3457 12.6627 10.8333H12.6789V9.79725H10.2575C10.2893 10.4676 10.2575 16.9411 10.2575 16.9411L10.2574 16.9413Z" fill="white"/>
</g>
<defs>
<clipPath id="clip0_1_1210">
<rect width="11.2941" height="10.5882" fill="white" transform="translate(6.35297 6.35303)"/>
</clipPath>
</defs>
</svg>
