<svg width="14" height="16" viewBox="0 0 14 16" fill="none" xmlns="http://www.w3.org/2000/svg">
<path d="M7 15.5C7 15.5 13.0938 10.6309 13.0938 6.89844C13.0938 3.36597 10.3643 0.5 7 0.5C3.63574 0.5 0.90625 3.36597 0.90625 6.89844C0.90625 10.6309 7 15.5 7 15.5ZM7 4.76562C7.53872 4.76562 8.05538 4.99033 8.43631 5.39031C8.81724 5.79029 9.03125 6.33278 9.03125 6.89844C9.03125 7.46409 8.81724 8.00658 8.43631 8.40656C8.05538 8.80654 7.53872 9.03125 7 9.03125C6.46128 9.03125 5.94462 8.80654 5.56369 8.40656C5.18276 8.00658 4.96875 7.46409 4.96875 6.89844C4.96875 6.33278 5.18276 5.79029 5.56369 5.39031C5.94462 4.99033 6.46128 4.76562 7 4.76562Z" fill="black"/>
</svg>
