<svg width="17" height="19" viewBox="0 0 17 19" fill="none" xmlns="http://www.w3.org/2000/svg">
<path d="M8.73242 17C8.73242 17 14.8262 12.1309 14.8262 8.39844C14.8262 4.86597 12.0967 2 8.73242 2C5.36816 2 2.63867 4.86597 2.63867 8.39844C2.63867 12.1309 8.73242 17 8.73242 17ZM8.73242 6.26562C9.27114 6.26562 9.7878 6.49033 10.1687 6.89031C10.5497 7.29029 10.7637 7.83278 10.7637 8.39844C10.7637 8.96409 10.5497 9.50658 10.1687 9.90656C9.7878 10.3065 9.27114 10.5312 8.73242 10.5312C8.1937 10.5312 7.67704 10.3065 7.29611 9.90656C6.91518 9.50658 6.70117 8.96409 6.70117 8.39844C6.70117 7.83278 6.91518 7.29029 7.29611 6.89031C7.67704 6.49033 8.1937 6.26562 8.73242 6.26562Z" fill="white"/>
</svg>
