<svg width="14" height="14" viewBox="0 0 14 14" fill="none" xmlns="http://www.w3.org/2000/svg">
<path d="M0 1.27609C0 1.04174 0.162766 0.83883 0.391535 0.787992L3.57319 0.0809568C3.78929 0.0329361 4.01123 0.132722 4.11874 0.326229L5.91976 3.56806C6.03826 3.78136 5.98549 4.04904 5.79491 4.20141L4.15656 5.51132C3.96914 5.66116 3.91348 5.9237 4.03378 6.13132C4.95372 7.71905 6.27873 9.044 7.86857 9.96595C8.07623 10.0864 8.33892 10.0308 8.48883 9.84327L9.79859 8.20509C9.95096 8.01451 10.2186 7.96174 10.4319 8.08024L13.6738 9.88126C13.8673 9.98877 13.9671 10.2107 13.919 10.4268L13.212 13.6085C13.1612 13.8372 12.9583 14 12.7239 14H12.25C5.48516 14 0 8.51484 0 1.75V1.27609Z" fill="black"/>
</svg>
